<svg xmlns="http://www.w3.org/2000/svg" width="95" height="53" viewBox="0 0 95 53"><g><g><path fill="#185cfb" d="M92.65 28.927l.004.001a2.904 2.904 0 0 1 .769.612c.07.074.126.147.187.225.15.194.28.406.384.639.04.084.086.162.118.252.018.046.045.083.06.129.09.28.136.567.147.85.003.029-.007.056-.006.086.004.314-.047.613-.133.902-.012.04-.004.084-.018.125l-6.491 18.508c-.497 1.417-1.977 2.01-3.31 1.32-1.33-.69-2.005-2.398-1.508-3.818l3.499-9.979c-8.859 4.82-18.787 6.377-19.258 6.447C36.8 50.966 6.714 32.502.028 4.07-.303 2.66.33 1.326 1.469.889c.122-.047.248-.084.38-.11 1.372-.26 2.78.79 3.148 2.346C10.95 28.452 38.214 44.81 65.849 39.577c.129-.018 10.389-1.623 18.776-6.451l-12.104-2.07c-1.42-.243-2.498-1.704-2.414-3.262.081-1.56 1.3-2.62 2.718-2.385l19.08 3.262c.26.047.51.134.746.256z"/></g></g></svg>