<svg xmlns="http://www.w3.org/2000/svg" width="22" height="21" viewBox="0 0 22 21"><g><g><g><path fill="#75b73b" d="M.21 10.5C.21 4.701 4.911 0 10.71 0s10.5 4.701 10.5 10.5S16.509 21 10.71 21 .21 16.299.21 10.5z"/></g><g><path fill="#52891d" d="M14.985 6.227c-.608-.152-1.504-.678-2.083-.889-2.263-.707-5.303-.141-6.152 2.475-.07.07-.212.07-.283.07-1.696 1.98-.565 4.385-.707 6.577-.048.772-.454 1.456-.977 2.033l4.4 4.396c.499.073 1.008.111 1.527.111 5.186 0 9.493-3.76 10.346-8.702z"/></g><g><g><path fill="#fff" d="M14.038 13.779a4.675 4.675 0 0 1-3.328 1.378c-.736 0-1.44-.165-2.095-.49l-.422-.211-1.861.44.392-1.901-.208-.408a4.653 4.653 0 0 1-.512-2.136c0-1.257.49-2.439 1.378-3.328a4.714 4.714 0 0 1 3.328-1.378c1.257 0 2.439.49 3.328 1.378a4.675 4.675 0 0 1 1.378 3.328 4.714 4.714 0 0 1-1.378 3.328zm-3.622-9.331C7.216 4.6 4.69 7.266 4.7 10.47c.003.975.238 1.897.654 2.71l-.638 3.098a.234.234 0 0 0 .283.275l3.035-.72c.78.389 1.656.613 2.582.627 3.272.05 5.999-2.547 6.101-5.817a6.01 6.01 0 0 0-6.3-6.195z"/></g><g><path fill="#fff" d="M13.627 11.754l-1.164-.334a.434.434 0 0 0-.43.113l-.284.29a.424.424 0 0 1-.461.098c-.551-.223-1.71-1.253-2.005-1.768a.424.424 0 0 1 .033-.47l.249-.322a.434.434 0 0 0 .053-.44l-.49-1.109a.434.434 0 0 0-.678-.155c-.324.275-.71.693-.757 1.155-.082.816.268 1.844 1.59 3.079 1.528 1.426 2.752 1.614 3.549 1.421.452-.109.813-.548 1.04-.907a.434.434 0 0 0-.245-.65z"/></g></g><g><g><path fill="#d1d1d1" d="M14.812 6.058l-.912.935a4.675 4.675 0 0 1 1.516 3.458 4.714 4.714 0 0 1-1.378 3.328 4.675 4.675 0 0 1-3.328 1.378c-.736 0-1.44-.165-2.094-.49l-.423-.211-1.86.44.038-.186-1.648 1.688c.036.11.152.184.276.155l3.035-.72c.78.389 1.656.613 2.582.627 3.272.05 6-2.547 6.101-5.817a5.995 5.995 0 0 0-1.905-4.585z"/></g><g><path fill="#d1d1d1" d="M13.627 11.754l-1.164-.334a.434.434 0 0 0-.43.113l-.284.29a.424.424 0 0 1-.461.098c-.319-.13-.84-.527-1.28-.94l-.809.83.084.08c1.528 1.426 2.752 1.614 3.549 1.421.452-.109.813-.548 1.04-.907a.434.434 0 0 0-.245-.65z"/></g></g></g></g></svg>