<svg xmlns="http://www.w3.org/2000/svg" width="27" height="27" viewBox="0 0 27 27"><g><g><g><g><path fill="#fff" d="M23.359 22.726c-.006 0-.006.006 0 0-.222.24-.45.456-.695.695-.37.354-.747.724-1.1 1.14-.576.615-1.254.906-2.143.906-.085 0-.176 0-.262-.006-1.692-.108-3.265-.769-4.445-1.333-3.225-1.561-6.057-3.778-8.41-6.588C4.36 15.198 3.06 13.033 2.2 10.708c-.53-1.42-.723-2.525-.638-3.567.057-.667.313-1.22.786-1.693l1.944-1.943c.279-.262.575-.405.866-.405.359 0 .65.217.832.4l.017.016c.348.325.678.661 1.026 1.02.176.183.359.365.541.553L9.13 6.645c.604.604.604 1.162 0 1.766-.166.166-.325.33-.49.49-.479.49-.935.946-1.43 1.39-.012.012-.023.018-.03.03-.49.49-.398.968-.295 1.293.005.017.01.034.017.051.404.98.974 1.904 1.84 3.003l.006.006c1.573 1.938 3.231 3.448 5.06 4.604.234.149.473.268.701.382.205.103.4.2.564.302.023.012.046.029.069.04.193.097.376.143.564.143.473 0 .77-.297.866-.394l1.949-1.948c.194-.194.501-.428.86-.428.354 0 .644.222.821.416l.011.012 3.14 3.14c.587.58.587 1.179.006 1.783zm-2.04-6c-.553-.576-1.22-.884-1.926-.884-.701 0-1.374.302-1.95.878l-1.8 1.795c-.148-.08-.296-.154-.439-.228a7.241 7.241 0 0 1-.564-.302c-1.687-1.071-3.22-2.468-4.69-4.274-.712-.9-1.19-1.658-1.538-2.428.467-.427.9-.871 1.322-1.299.16-.16.319-.325.478-.484 1.197-1.197 1.197-2.747 0-3.944L8.657 4.001c-.177-.177-.36-.36-.53-.542A26.9 26.9 0 0 0 7.055 2.4c-.552-.547-1.213-.837-1.909-.837-.695 0-1.367.29-1.937.837l-.011.012L1.26 4.365a4.17 4.17 0 0 0-1.237 2.65c-.136 1.664.354 3.214.73 4.229.923 2.49 2.302 4.798 4.36 7.27 2.495 2.981 5.498 5.335 8.929 6.993 1.31.621 3.06 1.356 5.015 1.482.12.005.245.011.359.011 1.316 0 2.421-.473 3.288-1.413.005-.012.017-.017.022-.029.297-.359.639-.684.998-1.031.245-.234.495-.479.74-.735.565-.587.86-1.271.86-1.972 0-.707-.301-1.385-.877-1.955z"/></g><g><path fill="#fff" d="M14.572 6.423c1.493.25 2.85.957 3.932 2.04a7.264 7.264 0 0 1 2.04 3.932.765.765 0 0 0 .758.638c.045 0 .085-.006.13-.012a.77.77 0 0 0 .633-.888 8.79 8.79 0 0 0-2.467-4.759 8.79 8.79 0 0 0-4.758-2.467.773.773 0 0 0-.89.627c-.073.416.2.82.622.889z"/></g><g><path fill="#fff" d="M26.95 11.91a14.46 14.46 0 0 0-4.064-7.835A14.46 14.46 0 0 0 15.05.012a.766.766 0 0 0-.883.627.773.773 0 0 0 .633.889c2.655.45 5.077 1.71 7.003 3.63a12.91 12.91 0 0 1 3.63 7.003.765.765 0 0 0 .758.638.755.755 0 0 0 .758-.889z"/></g></g></g></g></svg>