<svg xmlns="http://www.w3.org/2000/svg" width="21" height="21" viewBox="0 0 21 21">
  <g id="logo-instagram" transform="translate(-787 -575)">
    <g id="instagram_2_" data-name="instagram (2)" transform="translate(787 575)">
      <circle id="Ellipse_41" data-name="Ellipse 41" cx="10.5" cy="10.5" r="10.5" fill="#a416e6"/>
      <path id="Path_427" data-name="Path 427" d="M132.652,125.7a17.676,17.676,0,0,1-3.879.028c-1.838-.141-4.525-.99-5.515.707-1.59,2.717-.806,6.195-.435,9.273l5.526,5.525a10.5,10.5,0,0,0,9.919-9.917Z" transform="translate(-117.283 -120.247)" fill="#62069f" opacity="0.49"/>
      <g id="Group_334" data-name="Group 334" transform="translate(4.49 4.49)">
        <path id="Path_428" data-name="Path 428" d="M117.907,109.468h-4.859a3.585,3.585,0,0,0-3.581,3.581v4.859a3.585,3.585,0,0,0,3.581,3.581h4.859a3.585,3.585,0,0,0,3.581-3.581v-4.859a3.585,3.585,0,0,0-3.581-3.581Zm2.372,8.439a2.372,2.372,0,0,1-2.372,2.372h-4.859a2.372,2.372,0,0,1-2.372-2.372v-4.859a2.372,2.372,0,0,1,2.372-2.372h4.859a2.372,2.372,0,0,1,2.372,2.372Z" transform="translate(-109.468 -109.468)" fill="#fff"/>
        <path id="Path_429" data-name="Path 429" d="M183.311,180.2a3.109,3.109,0,1,0,3.109,3.109,3.112,3.112,0,0,0-3.109-3.109Zm0,5.008a1.9,1.9,0,1,1,1.9-1.9,1.9,1.9,0,0,1-1.9,1.9Z" transform="translate(-177.301 -177.301)" fill="#fff"/>
      </g>
      <g id="Group_335" data-name="Group 335" transform="translate(10.476 4.49)">
        <path id="Path_430" data-name="Path 430" d="M315.267,163.356a.745.745,0,1,1-.745-.745.745.745,0,0,1,.745.745Z" transform="translate(-311.384 -160.431)" fill="#d1d1d1"/>
        <path id="Path_431" data-name="Path 431" d="M257.879,109.468h-2.453v1.209h2.453a2.372,2.372,0,0,1,2.372,2.372v4.859a2.372,2.372,0,0,1-2.372,2.372h-2.453v1.209h2.453a3.585,3.585,0,0,0,3.581-3.581v-4.859A3.585,3.585,0,0,0,257.879,109.468Z" transform="translate(-255.426 -109.468)" fill="#d1d1d1"/>
        <path id="Path_432" data-name="Path 432" d="M255.45,180.2h-.024v1.209h.024a1.9,1.9,0,0,1,0,3.8h-.024v1.209h.024a3.109,3.109,0,0,0,0-6.218Z" transform="translate(-255.426 -177.301)" fill="#d1d1d1"/>
      </g>
    </g>
  </g>
</svg>
