<svg xmlns="http://www.w3.org/2000/svg" width="21" height="21" viewBox="0 0 21 21"><g><g><g><path fill="#4e598f" d="M0 10.5C0 4.701 4.701 0 10.5 0S21 4.701 21 10.5 16.299 21 10.5 21 0 16.299 0 10.5z"/></g><g><path fill="#364270" d="M20.983 9.913l-4.945-4.947c-.082.025-.287-.07-.376-.052-2.122.354-4.172 0-6.223.566-.99.283-1.06 1.485-1.414 2.262-.495 1.415-.424 2.97-1.06 4.314-.425.919-1.414 1.484-1.768 2.545-.118.442-.111 1-.244 1.423l4.962 4.96c.194.01.389.016.585.016C16.299 21 21 16.299 21 10.5c0-.197-.006-.392-.017-.587z"/></g><g><g><path fill="#fff" d="M14.89 4.49H6.11a1.62 1.62 0 0 0-1.62 1.62v8.78c0 .895.725 1.62 1.62 1.62h4.33l.008-4.295H9.332a.263.263 0 0 1-.264-.263l-.005-1.384c0-.146.118-.264.263-.264h1.114V8.966c0-1.553.949-2.398 2.333-2.398h1.137c.145 0 .263.118.263.263V8a.263.263 0 0 1-.263.263h-.697c-.754 0-.9.358-.9.883v1.159h1.656c.157 0 .28.137.261.294l-.164 1.385a.263.263 0 0 1-.262.232h-1.483l-.008 4.295h2.577a1.62 1.62 0 0 0 1.62-1.62V6.11a1.62 1.62 0 0 0-1.62-1.62z"/></g><g><path fill="#fff" d="M10.44 16.51l.008-4.295h-.019v4.295z"/></g></g><g><path fill="#d1d1d1" d="M14.89 4.49h-4.46v5.813h.01V8.966c0-1.553.949-2.398 2.333-2.398h1.137c.145 0 .263.118.263.263v1.167a.263.263 0 0 1-.263.264h-.697c-.753 0-.9.358-.9.883v1.159h1.656c.157 0 .28.137.261.294l-.164 1.384a.263.263 0 0 1-.262.233h-1.483l-.007 4.295h2.576a1.62 1.62 0 0 0 1.62-1.62V6.11a1.62 1.62 0 0 0-1.62-1.62z"/></g></g></g></svg>