<svg xmlns="http://www.w3.org/2000/svg" width="17" height="16" viewBox="0 0 17 16"><g><g><path fill="#fff" d="M1.297 8.765c-.03 0-.059 0-.118.03a1.434 1.434 0 0 1-.324-.119c.089-.058.236-.029.442.089zM16.24.837c-.766-.413-1.62.383-2.122.855-1.149 1.12-2.122 2.416-3.212 3.595-1.208 1.297-2.328 2.594-3.566 3.861-.707.707-1.474 1.474-1.945 2.358C4.333 10.474 3.419 9.354 2.24 8.44 1.386 7.792-.029 7.32 0 8.883c.06 2.033 1.857 4.214 3.183 5.6.56.589 1.297 1.208 2.152 1.237 1.031.06 2.092-1.179 2.711-1.857 1.09-1.178 1.975-2.505 2.977-3.713 1.297-1.591 2.623-3.153 3.89-4.774.796-1.002 3.3-3.478 1.326-4.539z"/></g></g></svg>