<svg xmlns="http://www.w3.org/2000/svg" width="27" height="27" viewBox="0 0 27 27"><g><g><g><g><g><g><path fill="#bf82f3" d="M16.887 16.494l-2.316 2.317c-.675-.183-2.698-.933-5.554-3.794-2.83-2.83-3.604-4.878-3.796-5.557l2.317-2.32 2.727 2.731-1.168 1.168a.55.55 0 0 0 0 .78l3.12 3.113a.551.551 0 0 0 .778 0l1.168-1.168c.002 0 .004 0 .007.003l2.718 2.723.002.002-.003.002zm-1.941-3.51l-.006-.005a1.109 1.109 0 0 0-1.556.005l-.779.779-2.339-2.335.779-.778c.208-.208.322-.485.322-.78 0-.296-.115-.573-.322-.781L8.317 6.362a1.093 1.093 0 0 0-.778-.323c-.294 0-.57.115-.778.323L4.227 8.896a.55.55 0 0 0-.157.46c.014.106.376 2.648 4.168 6.44 3.787 3.793 6.336 4.15 6.442 4.163a.552.552 0 0 0 .458-.157l.581-.581 1.947-1.946c.211-.209.328-.486.328-.783 0-.297-.117-.574-.329-.782z"/></g><g><path fill="#bf82f3" d="M13.123 5.584v1.102a4.964 4.964 0 0 1 4.958 4.958h1.102a6.067 6.067 0 0 0-6.06-6.06z"/></g><g><path fill="#bf82f3" d="M15.583 11.388h1.102a3.585 3.585 0 0 0-3.581-3.582v1.102a2.482 2.482 0 0 1 2.479 2.48z"/></g><g><path fill="#bf82f3" d="M13.147 3.306v1.102c4.101 0 7.438 3.336 7.438 7.438h1.102c0-4.71-3.831-8.54-8.54-8.54z"/></g></g></g></g><g><path fill="#bf82f3" d="M25.608 15.866a5.016 5.016 0 0 1-5.01 5.01h-5.01c-.12 0-.238.04-.334.112l-5.79 4.342v-3.897a.557.557 0 0 0-.557-.557H6.124a5.016 5.016 0 0 1-5.01-5.01V6.124a5.016 5.016 0 0 1 5.01-5.01h14.474a5.016 5.016 0 0 1 5.01 5.01zM20.598 0H6.124A6.13 6.13 0 0 0 0 6.124v9.742a6.13 6.13 0 0 0 6.124 6.124H8.35v4.453a.557.557 0 0 0 .89.446l6.532-4.9h4.825a6.13 6.13 0 0 0 6.124-6.123V6.124A6.13 6.13 0 0 0 20.598 0z"/></g></g></g></svg>