<svg xmlns="http://www.w3.org/2000/svg" width="22" height="21" viewBox="0 0 22 21"><g><g><path fill="#6f3faa" d="M.177 10.5c0-5.799 4.7-10.5 10.5-10.5 5.799 0 10.5 4.701 10.5 10.5S16.476 21 10.677 21c-5.8 0-10.5-4.701-10.5-10.5z"/></g><g><path fill="#512d84" d="M15.232 5.76c-2.556-.617-5.116-1.339-7.737-.422-1.697.637-1.697 2.475-1.626 4.03 0 .425-.495.99-.283 1.486.424 1.414.778 2.828 2.262 3.535.213.141 0 .424.142.636-.07 0-.212.07-.212.142 0 .339.152.857.05 1.191l4.513 4.51a10.505 10.505 0 0 0 8.774-9.225z"/></g><g><g><path fill="#fff" d="M15.216 11.924c-.187.74-1.147 1.66-1.91 1.83a14.02 14.02 0 0 1-3.012.243c-.02 0-.04.008-.053.022l-.937.961-.996 1.023a.117.117 0 0 1-.201-.08v-2.098a.072.072 0 0 0-.059-.07v-.001c-.763-.17-1.723-1.09-1.911-1.83a10.057 10.057 0 0 1 0-4.315c.188-.74 1.148-1.66 1.91-1.83a14.01 14.01 0 0 1 5.259 0c.763.17 1.723 1.09 1.91 1.83a10.046 10.046 0 0 1 0 4.315zm1.015-4.544l-.003-.014c-.28-1.134-1.545-2.351-2.707-2.605l-.013-.002a15.043 15.043 0 0 0-5.662 0l-.014.002c-1.16.254-2.426 1.47-2.707 2.605l-.003.014a11.083 11.083 0 0 0 0 4.774l.003.014c.27 1.085 1.44 2.247 2.558 2.566V16c0 .458.559.683.876.353l1.283-1.334a14.972 14.972 0 0 0 3.666-.244l.013-.003c1.162-.253 2.426-1.47 2.707-2.604l.003-.014c.347-1.584.347-3.19 0-4.774z"/></g><g><path fill="#fff" d="M12.337 12.892c-.118-.035-.23-.06-.333-.102-1.076-.447-2.066-1.023-2.85-1.905-.447-.502-.796-1.069-1.09-1.669-.14-.284-.259-.58-.379-.873-.11-.268.052-.545.222-.746.16-.19.365-.335.587-.441.174-.084.345-.036.471.111.274.318.526.652.73 1.021.125.227.09.504-.136.658-.056.038-.106.082-.157.124a.514.514 0 0 0-.119.125.342.342 0 0 0-.023.3c.28.77.752 1.368 1.527 1.69.124.052.248.112.391.095.24-.028.317-.29.484-.427a.456.456 0 0 1 .55-.024c.176.112.347.232.517.353.167.119.333.235.487.37.148.131.2.302.116.479-.153.324-.375.594-.695.766-.09.048-.198.064-.3.095-.118-.035.102-.031 0 0z"/></g><g><path fill="#fff" d="M10.68 6.785c1.407.04 2.563.973 2.81 2.365.043.237.058.479.076.72.008.1-.049.197-.158.198-.113.002-.164-.093-.171-.194-.015-.2-.025-.401-.052-.6a2.514 2.514 0 0 0-2.025-2.101c-.157-.028-.318-.036-.477-.052-.1-.011-.232-.017-.254-.142-.02-.105.07-.188.17-.194h.08c1.408.04-.027 0 0 0z"/></g><g><path fill="#fff" d="M12.818 9.557c-.002.018-.003.06-.014.098-.037.141-.251.16-.3.017a.423.423 0 0 1-.017-.136c0-.298-.066-.596-.216-.855a1.592 1.592 0 0 0-.667-.627 1.919 1.919 0 0 0-.532-.163c-.08-.013-.161-.021-.242-.032-.098-.014-.15-.076-.145-.172.004-.09.07-.156.168-.15.323.018.635.088.922.24.584.31.918.797 1.015 1.45.004.029.011.058.014.088l.014.242c-.002.018-.005-.096 0 0z"/></g><g><path fill="#fff" d="M11.943 9.523c-.118.003-.18-.063-.193-.17-.008-.076-.015-.152-.033-.225a.632.632 0 0 0-.233-.367.611.611 0 0 0-.19-.091c-.087-.025-.177-.019-.263-.04-.093-.023-.145-.098-.13-.186a.17.17 0 0 1 .178-.136c.546.04.936.322.991.964.004.045.009.093-.001.136-.017.075-.072.112-.126.115-.118.002.054-.003 0 0z"/></g></g><g><path fill="#d1d1d1" d="M16.231 7.38l-.003-.014c-.157-.636-.624-1.298-1.208-1.801l-.79.7c.47.374.872.893.986 1.344a10.046 10.046 0 0 1 0 4.315c-.187.74-1.147 1.66-1.91 1.83a14.02 14.02 0 0 1-3.012.243c-.02 0-.04.008-.053.022l-.937.961-.996 1.023a.117.117 0 0 1-.2-.08v-2.098a.072.072 0 0 0-.06-.07v-.001c-.434-.097-.931-.435-1.314-.846l-.78.692c.487.53 1.116.959 1.73 1.134V16c0 .458.558.683.875.353l1.283-1.334a14.962 14.962 0 0 0 3.666-.244l.013-.003c1.161-.253 2.426-1.47 2.707-2.604l.003-.014c.347-1.584.347-3.19 0-4.774z"/></g><g><path fill="#d1d1d1" d="M13.216 11.553c-.153-.136-.32-.252-.487-.371a11.35 11.35 0 0 0-.517-.353.456.456 0 0 0-.55.024c-.167.137-.245.4-.484.427-.143.017-.267-.043-.391-.095a2.53 2.53 0 0 1-1.111-.884l-.581.515.058.069c.785.882 1.775 1.458 2.85 1.905.104.043.216.067.334.102-.118-.035.102-.031 0 0 .102-.031.21-.047.3-.095.32-.173.543-.442.695-.766.084-.177.033-.348-.116-.478z"/></g><g><g><path fill="#d1d1d1" d="M12.698 7.622l-.247.22c.389.378.657.88.734 1.432.027.199.037.4.052.6.007.101.058.196.17.194.11-.001.167-.097.16-.198-.02-.24-.034-.483-.077-.72a2.825 2.825 0 0 0-.792-1.528z"/></g><g><path fill="#d1d1d1" d="M12.79 9.226c-.071-.475-.268-.862-.595-1.158l-.247.22c.128.113.238.246.323.392.15.26.215.558.216.856 0 .045.002.093.017.136.049.142.263.125.3-.017.01-.039.012-.08.014-.098-.002.018-.005-.096 0 0l-.014-.243c-.003-.03-.01-.058-.014-.088z"/></g></g><g><path fill="#fff" d="M11.943 9.523h.005-.02.015z"/></g><g><path fill="#fff" d="M11.943 9.523h-.015"/></g><g><path fill="#fff" d="M11.948 9.522l-.005.001"/></g><g><path fill="#d1d1d1" d="M11.695 8.512l-.252.223a.632.632 0 0 1 .274.393c.018.073.025.149.033.224.012.103.07.167.178.17h.02a.14.14 0 0 0 .12-.114c.01-.043.006-.091.002-.136-.03-.36-.167-.606-.375-.76z"/></g></g></svg>