<svg xmlns="http://www.w3.org/2000/svg" width="21" height="21" viewBox="0 0 21 21"><g><g><g><path fill="#efd004" d="M10.5 0C16.299 0 21 4.701 21 10.5S16.299 21 10.5 21 0 16.299 0 10.5 4.701 0 10.5 0z"/></g><g><path fill="#dbbd00" d="M5.566 4.192a2.592 2.592 0 0 0-1.17 3.354 18.662 18.662 0 0 0 3.178 4.898l.982.982 6.524 6.525a10.545 10.545 0 0 0 4.056-3.478l-2.408-2.407a1.335 1.335 0 0 0-.356-.356L7.29 4.628a1.338 1.338 0 0 0-1.724-.436z"/></g><g><path fill="#fff" d="M14.339 12.33a.987.987 0 0 0-1.112.003l-.482.33a1.503 1.503 0 0 1-1.767-.048 16.49 16.49 0 0 1-1.392-1.201c-.425-.441-.826-.905-1.2-1.392a1.503 1.503 0 0 1-.05-1.767l.331-.482a.987.987 0 0 0 .003-1.112L7.29 4.628a1.338 1.338 0 0 0-1.724-.436 2.592 2.592 0 0 0-1.17 3.354 18.662 18.662 0 0 0 3.178 4.898l.982.982a18.664 18.664 0 0 0 4.898 3.178 2.592 2.592 0 0 0 3.354-1.17 1.338 1.338 0 0 0-.436-1.724z"/></g></g></g></svg>