<svg xmlns="http://www.w3.org/2000/svg" width="18" height="18" viewBox="0 0 18 18"><g><g><path fill="#fff" d="M.926 3.886c.045-.496.235-.91.594-1.268l1.387-1.387c.216-.21.455-.317.686-.317.228 0 .459.108.672.324.25.232.485.474.738.731l.388.396 1.112 1.111c.23.231.35.466.35.698 0 .23-.12.466-.35.697l-.347.35c-.347.351-.672.683-1.03 1l-.018.019c-.31.31-.262.604-.187.828l.011.03c.287.69.687 1.346 1.31 2.13 1.118 1.38 2.297 2.45 3.595 3.274.16.105.332.187.492.269.15.074.287.145.41.224l.042.022a.78.78 0 0 0 .361.093c.299 0 .493-.19.556-.253l1.395-1.395c.216-.217.451-.332.683-.332.283 0 .514.175.66.332l2.249 2.245c.447.448.444.932-.011 1.406-.157.168-.321.328-.496.496-.261.254-.534.515-.78.81-.429.462-.94.678-1.6.678a3.37 3.37 0 0 1-.194-.007c-1.223-.078-2.36-.556-3.215-.962a18.141 18.141 0 0 1-6.046-4.737C2.952 9.716 2.016 8.157 1.396 6.486c-.384-1.026-.53-1.85-.47-2.6zm2.708 8.08a19.096 19.096 0 0 0 6.352 4.975c.929.44 2.17.962 3.555 1.052.085.003.167.007.253.007.929 0 1.675-.32 2.283-.981.004-.004.011-.011.015-.019.216-.26.462-.496.72-.746.175-.167.354-.343.526-.522.794-.828.794-1.88-.008-2.681l-2.241-2.242c-.38-.395-.836-.604-1.313-.604-.478 0-.937.209-1.328.6l-1.335 1.335c-.124-.07-.25-.134-.37-.193a4.612 4.612 0 0 1-.41-.224c-1.216-.772-2.32-1.78-3.375-3.074-.534-.675-.892-1.242-1.142-1.82.35-.317.679-.649.996-.973.112-.116.228-.231.343-.347.403-.403.62-.87.62-1.343 0-.474-.213-.94-.62-1.343L6.044 1.712c-.13-.13-.254-.257-.38-.388a20.457 20.457 0 0 0-.758-.75C4.522.198 4.071 0 3.593 0c-.473 0-.928.198-1.328.578L.871 1.973a2.866 2.866 0 0 0-.855 1.835c-.07.892.094 1.839.519 2.984.653 1.772 1.637 3.416 3.1 5.173z"/></g></g></svg>