<svg xmlns="http://www.w3.org/2000/svg" width="20" height="19" viewBox="0 0 20 19"><g><g><g><path fill="#db5449" d="M.779 5.047L9.685 9.5l8.906-4.453v9.5L9.685 19 .78 14.547z"/></g><g><path fill="#c54b42" d="M.779 5.937v2.776l8.876 4.35 8.936-4.365v-2.76l-8.906 4.364z"/></g><g><path fill="#d05045" d="M9.685 19V9.5L1.373 5.344H.779v9.203z"/></g><g><path fill="#bb483e" d="M.779 5.937v2.776l8.876 4.35.03-.015v-2.761.015z"/></g><g><path fill="#eb6258" d="M.185 4.735L9.685 0l9.5 4.735v.624l-9.5 4.735-9.5-4.72z"/></g><g><path fill="#efefef" d="M12.98 3.325c-.326.208-.875.46-1.81.534.34-.727.98-1.78 1.796-1.78.34 0 .578.192.578.444 0 .208-.148.52-.564.802zm-6.59 0c-.416-.282-.564-.594-.564-.802 0-.252.237-.445.579-.445.801 0 1.44 1.054 1.796 1.781-.935-.074-1.485-.326-1.811-.534zm8.743-1.826c-.312-.564-.98-.905-1.767-.905-1.796 0-3.057 1.677-3.68 2.746C9.061 2.27 7.785.609 6.003.609c-1.143 0-1.96.697-1.96 1.647 0 1.692 1.856 2.79 5.582 2.79 3.725 0 5.7-1.41 5.7-2.775 0-.267-.06-.534-.193-.772z"/></g><g><path fill="#e2574c" d="M.185 4.75l9.5 4.646 9.5-4.646v3.073l-9.53 4.646-9.47-4.646z"/></g><g><path fill="#efefef" d="M13.248 8.06V7.72l-3.563-1.93-3.562 1.93v.341L3.748 7.021v-.475l5.818-3.073.12.06.118-.06 5.819 3.058v.475z"/></g><g><path fill="#dcdcdc" d="M13.248 7.719v9.485l2.375-1.188V6.531z"/></g><g><path fill="#d1d1d1" d="M3.748 16.031l2.375 1.188V7.734L3.748 6.53v9.5z"/></g></g></g></svg>