<svg xmlns="http://www.w3.org/2000/svg" width="17" height="15" viewBox="0 0 17 15"><g><g><path fill="#fff" d="M1.297 8.043c-.03 0-.059 0-.118.03a1.434 1.434 0 0 1-.324-.119c.088-.059.236-.03.442.089zM16.24.115c-.766-.413-1.62.383-2.122.855-1.15 1.12-2.122 2.416-3.212 3.595-1.208 1.297-2.328 2.593-3.566 3.86-.707.708-1.474 1.474-1.945 2.359C4.333 9.752 3.419 8.632 2.24 7.719 1.386 7.07-.029 6.599 0 8.16c.06 2.033 1.857 4.214 3.183 5.6.56.589 1.297 1.207 2.152 1.237 1.031.059 2.092-1.179 2.711-1.857 1.09-1.179 1.975-2.505 2.977-3.713 1.296-1.592 2.623-3.154 3.89-4.775.796-1.002 3.3-3.477 1.326-4.538z"/></g></g></svg>