<svg xmlns="http://www.w3.org/2000/svg" width="80" height="80" viewBox="0 0 80 80"><g><g opacity=".2"><path fill="#185cfb" d="M0 40C0 17.909 17.909 0 40 0s40 17.909 40 40-17.909 40-40 40S0 62.091 0 40z"/></g><g><path fill="#185cfb" d="M25.595 41.085c-.06 0-.118 0-.236.06a2.868 2.868 0 0 1-.649-.237c.177-.117.472-.058.885.177zM55.479 25.23c-1.533-.825-3.242.766-4.244 1.71-2.299 2.239-4.244 4.832-6.425 7.19-2.417 2.594-4.656 5.187-7.132 7.722-1.415 1.414-2.947 2.947-3.89 4.715-2.122-2.063-3.95-4.303-6.307-6.13-1.71-1.297-4.539-2.24-4.48.884.118 4.067 3.714 8.43 6.366 11.2 1.12 1.178 2.594 2.416 4.303 2.475 2.063.118 4.185-2.358 5.423-3.714 2.18-2.357 3.949-5.01 5.953-7.426 2.593-3.183 5.246-6.307 7.78-9.55 1.592-2.003 6.602-6.954 2.653-9.076z"/></g></g></svg>