<svg xmlns="http://www.w3.org/2000/svg" width="17" height="15" viewBox="0 0 17 15"><g><g><path fill="#fff" d="M1.294 8.043c-.03 0-.06 0-.118.03a1.434 1.434 0 0 1-.324-.119c.088-.059.235-.03.442.089zM16.236.115c-.766-.413-1.621.383-2.122.855-1.15 1.12-2.122 2.416-3.212 3.595-1.209 1.297-2.329 2.593-3.567 3.86-.707.708-1.473 1.474-1.945 2.359-1.06-1.032-1.974-2.152-3.153-3.065-.855-.649-2.27-1.12-2.24.442.059 2.033 1.857 4.214 3.183 5.6.56.589 1.297 1.207 2.151 1.237 1.032.059 2.093-1.179 2.712-1.857 1.09-1.179 1.974-2.505 2.976-3.713 1.297-1.592 2.623-3.154 3.89-4.775.796-1.002 3.301-3.477 1.327-4.538z"/></g></g></svg>