<svg xmlns="http://www.w3.org/2000/svg" width="21" height="21" viewBox="0 0 21 21"><g><g><g><path fill="#7aa5da" d="M0 10.5C0 4.701 4.701 0 10.5 0S21 4.701 21 10.5 16.299 21 10.5 21 0 16.299 0 10.5z"/></g><g><path fill="#5786b5" d="M20.997 10.257l-4.661-4.653-7.592 9.254 5.466 5.467c3.968-1.5 6.79-5.332 6.79-9.825l-.003-.243z"/></g><g><path fill="#fff" d="M9.254 11.983a.272.272 0 0 0-.09.175l-.185 2.752c-.007.057-.086.065-.102.01l-.822-3.611a.274.274 0 0 1 .117-.315l6.03-3.74c.139-.086.28.105.158.214zM4.744 9.76a.4.4 0 0 0 .033.758l2.794.825 1.042 3.308a.48.48 0 0 0 .8.192l1.445-1.475 2.834 2.08c.347.255.84.065.929-.355l1.877-8.974a.566.566 0 0 0-.76-.643z"/></g><g><path fill="#9ec2e5" d="M14.202 7.255c.139-.087.28.104.158.213l-5.106 4.515a.272.272 0 0 0-.09.175L8.98 14.91c-.008.057-.087.065-.103.01l-.822-3.611a.274.274 0 0 1 .117-.315z"/></g><g><path fill="#fff" d="M8.907 14.957a.472.472 0 0 1-.294-.306l-1.042-3.308-2.794-.825a.4.4 0 0 1-.032-.758l10.993-4.284a.564.564 0 0 1 .594.117l-7.459 6.089v.266l-.04-.03.04 1.68v1.345c.011.005.022.01.034.013v.001z"/></g><g><g><path fill="#d1d1d1" d="M16.51 5.969a.614.614 0 0 1-.012.15l-1.877 8.974a.591.591 0 0 1-.929.355l-2.834-2.08-1.985-1.42v-.266l7.459-6.089a.59.59 0 0 1 .104.13l.014.026.012.025.011.027.01.025a.563.563 0 0 1 .027.143z"/></g><g><path fill="#d1d1d1" d="M10.858 13.368l-1.444 1.475a.577.577 0 0 1-.077.064.5.5 0 0 1-.084.045.48.48 0 0 1-.279.025l-.006-.002a1.168 1.168 0 0 1-.061-.019l-.034-1.359v-1.649z"/></g></g><g><g><path fill="#dadde0" d="M9.376 14.878a.503.503 0 0 1-.039.03v-.001a.498.498 0 0 0 .04-.03z"/></g><g><path fill="#dadde0" d="M9.337 14.907z"/></g><g><path fill="#dadde0" d="M9.253 14.952a.496.496 0 0 0 .084-.045"/></g><g><path fill="#dadde0" d="M9.023 14.984z"/></g></g><g><g><path fill="#fff" d="M9.073 14.987c-.014 0-.028 0-.042-.002"/></g><g><path fill="#fff" d="M9.023 14.984a.271.271 0 0 1 0 0z"/></g></g><g><g><path fill="#dadde0" d="M9.023 14.984a.28.28 0 0 1-.034-.005c-.005 0-.01 0-.014-.002a.512.512 0 0 0 .048.007z"/></g><g><path fill="#dadde0" d="M8.922 14.962l.046.013-.019-.004a.025.025 0 0 1-.008-.003.107.107 0 0 1-.02-.006z"/></g></g><g><g><path fill="#fff" d="M8.95 14.971l.018.004"/></g><g><path fill="#fff" d="M8.922 14.962a.187.187 0 0 1-.012-.003l.012.003z"/></g></g><g><path fill="#dadde0" d="M8.922 14.962c-.005 0-.008-.002-.012-.004h-.003v-.002l.015.006z"/></g><g><path fill="#d1d1d1" d="M8.873 13.597l.034 1.36a.268.268 0 0 1-.034-.014z"/></g><g><path fill="#dadde0" d="M8.873 11.948v1.65l-.04-1.68z"/></g><g><path fill="#adbcc9" d="M14.36 7.468l-5.106 4.515a.273.273 0 0 0-.09.175L8.98 14.91c-.007.058-.086.065-.103.01l-.822-3.611a.274.274 0 0 1 .117-.315l6.03-3.74c.139-.086.28.105.158.213z"/></g></g></g></svg>