<svg xmlns="http://www.w3.org/2000/svg" width="12" height="16" viewBox="0 0 12 16"><g><g><g><g><path fill="#fff" d="M8.629 5.973h-5.31V4.646A2.658 2.658 0 0 1 5.974 1.99a2.658 2.658 0 0 1 2.655 2.655zm-1.662 6.933a.333.333 0 0 1-.33.368H5.31a.332.332 0 0 1-.33-.368l.21-1.883a1.313 1.313 0 0 1-.544-1.067 1.329 1.329 0 0 1 2.655 0c0 .429-.203.82-.543 1.067zm4.649-6.933h-.996V4.646A4.651 4.651 0 0 0 5.974 0a4.651 4.651 0 0 0-4.646 4.646v1.327H.332A.332.332 0 0 0 0 6.305v8.297c0 .732.595 1.327 1.328 1.327h9.292c.732 0 1.327-.595 1.327-1.327V6.305a.332.332 0 0 0-.331-.332z"/></g></g></g></g></svg>