<svg xmlns="http://www.w3.org/2000/svg" width="27" height="27" viewBox="0 0 27 27"><g><g><g><path fill="#24b708" d="M19.979 15.515c-.053-.026-2.021-.995-2.371-1.12a1.361 1.361 0 0 0-.459-.102c-.265 0-.489.132-.663.392-.196.293-.791.988-.975 1.196-.024.028-.057.06-.077.06-.017 0-.322-.125-.414-.165-2.112-.917-3.715-3.123-3.934-3.495-.032-.053-.033-.078-.033-.078a.634.634 0 0 1 .115-.136c.107-.106.223-.246.336-.38.053-.065.106-.13.159-.19.163-.19.235-.337.32-.507l.044-.089c.205-.408.03-.753-.027-.864-.047-.093-.878-2.099-.966-2.31-.213-.508-.493-.745-.884-.745-.036 0 0 0-.152.007-.184.007-1.191.14-1.636.42-.472.298-1.271 1.247-1.271 2.915 0 1.502.953 2.92 1.362 3.459l.056.08c1.567 2.289 3.52 3.984 5.5 4.775 1.906.762 2.809.85 3.322.85.216 0 .388-.017.54-.032l.097-.01c.659-.058 2.106-.807 2.435-1.722.26-.72.328-1.508.155-1.794-.118-.194-.322-.292-.58-.415z"/></g><g><path fill="#24b708" d="M13.74 23.58c-2.064 0-4.062-.595-5.78-1.723a.35.35 0 0 0-.299-.04l-3.51 1.115 1.133-3.342a.35.35 0 0 0-.049-.32c-1.308-1.788-2-3.9-2-6.108 0-5.746 4.713-10.42 10.505-10.42 5.79 0 10.503 4.674 10.503 10.42 0 5.745-4.712 10.419-10.503 10.419zm0-23.58C6.427 0 .478 5.904.478 13.162c0 2.347.628 4.645 1.818 6.656L.02 26.537a.35.35 0 0 0 .438.447l7.006-2.227a13.351 13.351 0 0 0 6.277 1.565c7.311 0 13.26-5.903 13.26-13.16C27 5.904 21.051 0 13.74 0z"/></g></g></g></svg>