<svg xmlns="http://www.w3.org/2000/svg" width="34" height="32" viewBox="0 0 34 32"><g><g><g><path fill="#db5449" d="M5.83 4.59L16.58 16.77l16.195-1.292-5.806 14.371-16.195 1.293L.023 18.962z"/></g><g><path fill="#c54b42" d="M5.285 5.938L3.59 10.137l10.77 12.005 16.185-1.14 1.688-4.177-16.14 1.158z"/></g><g><path fill="#d05045" d="M10.775 31.142l5.806-14.371L6.547 5.403l-.899-.363L.023 18.962z"/></g><g><path fill="#bb483e" d="M5.285 5.938L3.59 10.137l10.77 12.005.054-.005 1.687-4.176-.009.022z"/></g><g><path fill="#eb6258" d="M5.122 3.756L22.388 2.4l11.477 12.97-.381.943-17.266 1.357L4.732 4.722z"/></g><g><path fill="#efefef" d="M25.34 9.443c-.62.115-1.606.161-3.066-.298.961-.892 2.571-2.096 3.806-1.597.516.209.758.646.604 1.028-.127.314-.542.695-1.344.867zm-9.97-4.028c-.456-.68-.49-1.243-.363-1.557.154-.382.631-.529 1.148-.32 1.212.49 1.534 2.474 1.628 3.793-1.37-.684-2.046-1.402-2.413-1.916zm14.342 2.582c-.126-1.044-.928-1.969-2.118-2.45-2.717-1.097-5.651.67-7.248 1.905-.29-1.998-1.205-5.293-3.9-6.382-1.728-.699-3.39-.142-3.97 1.295-1.035 2.56 1.1 5.356 6.737 7.633 5.636 2.277 9.485 1.35 10.32-.715.163-.405.236-.845.18-1.286z"/></g><g><path fill="#e2574c" d="M5.113 3.779l11.532 12.835 17.21-1.222-1.877 4.648-17.256 1.204L3.235 8.427z"/></g><g><path fill="#efefef" d="M22.85 16.77l.21-.516-4.21-5.097-6.57.742-.208.516-2.958-3.023.29-.719 10.681-1.092.143.163.216-.017 6.934 8.182-.29.718z"/></g><g><path fill="#dcdcdc" d="M23.06 16.254l-5.798 14.348 4.318-.344 5.798-14.35z"/></g><g><path fill="#d1d1d1" d="M3.607 23.022l2.867 3.248 5.798-14.349-2.858-3.27-5.807 14.371z"/></g></g></g></svg>