<svg xmlns="http://www.w3.org/2000/svg" width="15" height="15" viewBox="0 0 15 15"><g><g><g><g><path d="M11.404 9.923c-.49-.484-1.102-.484-1.589 0-.371.368-.743.737-1.108 1.111-.1.103-.184.125-.306.056-.24-.13-.496-.237-.727-.38-1.077-.678-1.98-1.549-2.778-2.529-.397-.487-.75-1.008-.996-1.595-.05-.118-.04-.196.056-.293.372-.36.734-.727 1.099-1.096.509-.512.509-1.111-.003-1.626-.29-.294-.58-.58-.871-.874-.3-.3-.596-.603-.899-.9-.49-.477-1.102-.477-1.589.004C1.32 2.17.96 2.547.58 2.91c-.353.334-.53.743-.568 1.22-.06.778.13 1.511.4 2.226.549 1.48 1.385 2.794 2.4 3.999a14.854 14.854 0 0 0 4.92 3.849c.86.418 1.753.74 2.724.792.668.038 1.249-.13 1.714-.652.318-.356.677-.68 1.014-1.02.5-.506.503-1.118.006-1.618-.593-.596-1.189-1.189-1.785-1.782z"/></g><g><path d="M10.808 7.435l1.152-.196a5.148 5.148 0 0 0-1.44-2.778 5.12 5.12 0 0 0-2.934-1.464l-.162 1.158a3.973 3.973 0 0 1 2.273 1.133c.586.587.97 1.33 1.11 2.147z"/></g><g><path d="M12.609 2.428A8.493 8.493 0 0 0 7.739 0l-.162 1.158a7.364 7.364 0 0 1 4.208 2.098 7.358 7.358 0 0 1 2.063 3.98L15 7.038a8.555 8.555 0 0 0-2.391-4.61z"/></g></g></g></g></svg>
