<svg xmlns="http://www.w3.org/2000/svg" width="16" height="14" viewBox="0 0 16 14"><g><g><g><g><path fill="#fff" d="M6.271 9.801v1.943c0 .223-.186.411-.409.411h-.92a.415.415 0 0 1-.408-.41V9.8a1.156 1.156 0 0 1-.342-.831c0-.616.476-1.146 1.082-1.17.064-.003.193-.003.257 0 .605.024 1.082.554 1.082 1.17 0 .325-.126.619-.342.831zm3.767-4.182h-.274H.767c-.423 0-.767.436-.767.974v6.43c0 .537.344.977.767.977h9.271c.422 0 .767-.44.767-.977v-6.43c0-.538-.345-.974-.767-.974z"/></g></g><g><g><path fill="#fff" d="M7.276 6.62h.274V4.395c0-2.371 1.659-4.338 4.01-4.38.065-.002.193-.002.258 0 2.352.042 4.233 2.022 4.233 4.394v.049a.903.903 0 1 1-1.805 0v-.05c0-1.412-1.148-2.58-2.557-2.58-1.408 0-2.334 1.155-2.334 2.567V6.62H7.276z"/></g></g></g></g></svg>