<svg xmlns="http://www.w3.org/2000/svg" width="25" height="22" viewBox="0 0 25 22"><g><g><g><g><path fill="#185cfb" d="M24.41 1.034H10.08a.058.058 0 0 0-.056.057v1.341c0 .029.023.057.056.057h14.33a.058.058 0 0 0 .057-.056V1.09a.055.055 0 0 0-.057-.057z"/></g><g><path fill="#185cfb" d="M1.593 11.554a1.797 1.797 0 1 1 3.594 0 1.797 1.797 0 0 1-3.594 0z"/></g><g><path fill="#185cfb" d="M1.584 20.056a1.807 1.807 0 1 1 3.613 0 1.807 1.807 0 0 1-3.613 0z"/></g><g><path fill="#185cfb" d="M9.391 5.155h6.771a.058.058 0 0 0 .057-.057V3.756a.058.058 0 0 0-.057-.057H9.391a.058.058 0 0 0-.057.057v1.342c.005.033.029.057.057.057z"/></g><g><path fill="#185cfb" d="M24.41 9.527H10.08a.058.058 0 0 0-.056.057v1.342c0 .028.023.057.056.057h14.33a.058.058 0 0 0 .057-.057V9.584a.055.055 0 0 0-.057-.057z"/></g><g><path fill="#185cfb" d="M9.391 13.578h6.771a.058.058 0 0 0 .057-.057v-1.342a.058.058 0 0 0-.057-.057H9.391a.058.058 0 0 0-.057.057v1.342c.005.028.029.057.057.057z"/></g><g><path fill="#185cfb" d="M24.41 18.112H10.08a.058.058 0 0 0-.056.057v1.342c0 .028.023.056.056.056h14.33a.058.058 0 0 0 .057-.056v-1.342a.055.055 0 0 0-.057-.057z"/></g><g><path fill="#185cfb" d="M16.162 20.544H9.391a.058.058 0 0 0-.057.057v1.342c0 .029.024.057.057.057h6.771a.058.058 0 0 0 .057-.057v-1.342a.055.055 0 0 0-.057-.057z"/></g><g><path fill="#185cfb" d="M2.532 2.945L1.294 1.698 0 2.988 1.242 4.23l1.285 1.294 1.29-1.285 2.964-2.945L5.496 0z"/></g></g></g></g></svg>